<svg width="100%" height="100%" viewBox="0 0 600 500" xmlns="http://www.w3.org/2000/svg">
  <!-- Background shapes -->
  <circle cx="450" cy="120" r="80" fill="#500073" opacity="0.4"/>
  <circle cx="120" cy="380" r="90" fill="#C62300" opacity="0.35"/>

  <!-- Laptop base -->
  <rect x="150" y="260" width="300" height="25" rx="8" fill="#2A004E"/>
  <rect x="170" y="120" width="260" height="150" rx="12" fill="#500073"/>

  <!-- Screen -->
  <rect x="185" y="135" width="230" height="120" rx="8" fill="#1c0035"/>

  <!-- Code lines -->
  <rect x="200" y="155" width="140" height="8" rx="4" fill="#F14A00"/>
  <rect x="200" y="175" width="180" height="8" rx="4" fill="#C62300"/>
  <rect x="200" y="195" width="110" height="8" rx="4" fill="#F14A00"/>
  <rect x="200" y="215" width="160" height="8" rx="4" fill="#C62300"/>

  <!-- Person head -->
  <circle cx="300" cy="80" r="30" fill="#F14A00"/>

  <!-- Person body -->
  <rect x="270" y="110" width="60" height="80" rx="20" fill="#500073"/>

  <!-- Arms -->
  <rect x="235" y="140" width="40" height="12" rx="6" fill="#F14A00"/>
  <rect x="325" y="140" width="40" height="12" rx="6" fill="#F14A00"/>

  <!-- Accent dots -->
  <circle cx="520" cy="300" r="6" fill="#F14A00"/>
  <circle cx="500" cy="320" r="4" fill="#C62300"/>
  <circle cx="540" cy="340" r="5" fill="#F14A00"/>
</svg>
